<svg width="800" height="800" viewBox="0 0 800 800" fill="none" xmlns="http://www.w3.org/2000/svg">
<g clip-path="url(#clip0_215_145)">
<path d="M773.663 347.373H736.685L647.539 192.023H316.705L192.23 347.373H39.1596C14.9893 347.373 -3.39666 368.959 0.531463 392.82L24.0815 536.292C24.0815 537.427 25.0096 538.461 26.1471 538.461H126.752C131.916 493.528 170.133 458.514 216.406 458.514C262.68 458.514 300.9 493.528 306.064 538.461H536.61C541.774 493.528 579.994 458.514 626.267 458.514C672.541 458.514 710.758 493.528 715.925 538.461H773.664C788.227 538.461 800.002 526.684 800.002 512.12V373.709C800 359.148 788.227 347.373 773.663 347.373ZM512.335 253.998H602.813L658.903 347.373L660.863 353.169L661.281 354.706H512.335V253.998ZM281.021 354.567L283.956 347.373L358.642 253.998H441.48V354.708H324.902L281.021 354.567Z" fill="black"/>
<path d="M216.406 489.503C187.177 489.503 162.903 510.678 158.05 538.463C157.428 541.766 157.116 545.278 157.116 548.792C157.116 581.431 183.663 607.977 216.405 607.977C249.15 607.977 275.695 581.43 275.695 548.792C275.695 545.28 275.386 541.767 274.767 538.463C269.913 510.677 245.639 489.503 216.406 489.503Z" fill="black"/>
<path d="M626.266 489.503C597.033 489.503 572.759 510.678 567.906 538.463C567.284 541.766 566.975 545.278 566.975 548.792C566.975 581.431 593.519 607.977 626.264 607.977C659.006 607.977 685.552 581.43 685.552 548.792C685.552 545.28 685.242 541.767 684.624 538.463C679.77 510.677 655.497 489.503 626.266 489.503Z" fill="black"/>
</g>
<defs>
<clipPath id="clip0_215_145">
<rect width="800" height="800" fill="white"/>
</clipPath>
</defs>
</svg>
