<svg width="41" height="40" viewBox="0 0 41 40" fill="none" xmlns="http://www.w3.org/2000/svg">
<g clip-path="url(#clip0_40_4)">
<path d="M35.3859 6.42236H4.92373C2.20891 6.42236 0 8.6143 0 11.3083V28.6919C0 31.3858 2.20891 33.5778 4.92373 33.5778H35.3859C38.1007 33.5778 40.3096 31.3858 40.3096 28.6919V11.3088C40.3101 8.6143 38.1012 6.42236 35.3859 6.42236ZM32.9799 9.60987L20.1548 17.8092L7.32965 9.60987H32.9799ZM35.3859 30.3908H4.92373C3.97989 30.3908 3.21218 29.6285 3.21218 28.6924V11.3991L19.1638 21.5779C19.1853 21.5912 19.2083 21.6002 19.2302 21.6124C19.2532 21.6252 19.2768 21.6374 19.3004 21.6491C19.424 21.7123 19.5514 21.7633 19.6815 21.7968C19.6949 21.8005 19.7083 21.8021 19.7217 21.8053C19.8646 21.8387 20.0092 21.8594 20.1537 21.8594C20.1543 21.8594 20.1548 21.8594 20.1548 21.8594C20.1559 21.8594 20.1564 21.8594 20.1569 21.8594C20.3015 21.8594 20.446 21.8393 20.589 21.8053C20.6024 21.8021 20.6157 21.8005 20.6291 21.7968C20.7592 21.7633 20.8861 21.7123 21.0103 21.6491C21.0339 21.6374 21.0574 21.6252 21.0804 21.6124C21.1024 21.6002 21.1254 21.5912 21.1468 21.5779L37.0985 11.3991V28.6919C37.098 29.6285 36.3297 30.3908 35.3859 30.3908Z" fill="white"/>
</g>
<defs>
<clipPath id="clip0_40_4">
<rect width="40.3096" height="40" fill="white"/>
</clipPath>
</defs>
</svg>
