<svg width="800" height="800" viewBox="0 0 800 800" fill="none" xmlns="http://www.w3.org/2000/svg">
<path d="M445.969 73.1678L450.13 77.0606L761 381.89L727.659 415.739L684.852 373.772L684.876 695.526C684.876 720.545 665.47 741.054 640.857 742.858L637.313 743H161.687C136.621 743 116.074 723.631 114.243 699.063L114.124 695.526L114.1 373.796L71.3414 415.739L38 381.89L348.537 77.3692C375.005 50.4041 417.693 48.9086 445.969 73.1678ZM384.47 108.868L382.187 110.933L161.663 327.153L161.687 695.526L280.57 695.502L280.593 458.157C280.593 433.138 299.999 412.63 324.613 410.802L328.156 410.683H470.844C495.91 410.683 516.457 430.053 518.288 454.62L518.407 458.157L518.383 695.502L637.313 695.526L637.29 327.129L416.147 110.269C407.491 101.794 393.983 101.272 384.47 108.868ZM470.844 458.157H328.156L328.132 695.502H470.82L470.844 458.157Z" fill="black"/>
</svg>
