<svg width="16" height="20" viewBox="0 0 16 20" fill="none" xmlns="http://www.w3.org/2000/svg">
<path d="M8.00003 0C3.92504 0 0.609741 3.31524 0.609741 7.39029C0.609741 11.3356 7.34708 19.4834 7.63387 19.8283C7.72435 19.937 7.8585 20 8.00003 20C8.14149 20 8.27571 19.9371 8.36619 19.8283C8.65304 19.4833 15.3903 11.3356 15.3903 7.39029C15.3903 3.31524 12.0751 0 8.00003 0ZM8.00003 18.7681C7.40263 18.0222 6.16142 16.4328 4.93317 14.6159C2.72784 11.3538 1.56212 8.85518 1.56212 7.39029C1.56212 3.84038 4.45019 0.952381 8.00003 0.952381C11.5499 0.952381 14.4379 3.84038 14.4379 7.39029C14.4379 8.85511 13.2723 11.3537 11.0669 14.6159C9.83857 16.4328 8.59742 18.0222 8.00003 18.7681Z" fill="black"/>
<path d="M10.4227 13.5845C10.2048 13.4373 9.90873 13.4947 9.76156 13.7126C9.11895 14.6638 8.39908 15.6608 7.62194 16.6757C7.46207 16.8846 7.50168 17.1834 7.71051 17.3433C7.79686 17.4095 7.89864 17.4415 7.99965 17.4415C8.14276 17.4415 8.28435 17.3771 8.37807 17.2547C9.16664 16.2249 9.89762 15.2125 10.5507 14.2457C10.6979 14.0278 10.6407 13.7317 10.4227 13.5845Z" fill="black"/>
<path d="M8.00004 3.65079C5.84696 3.65079 4.09528 5.40247 4.09528 7.55555C4.09528 9.70863 5.84696 11.4603 8.00004 11.4603C10.1531 11.4603 11.9048 9.70863 11.9048 7.55555C11.9048 5.40247 10.1531 3.65079 8.00004 3.65079ZM8.00004 10.5079C6.3721 10.5079 5.04766 9.18349 5.04766 7.55555C5.04766 5.92761 6.3721 4.60317 8.00004 4.60317C9.62804 4.60317 10.9524 5.92761 10.9524 7.55555C10.9524 9.18349 9.62804 10.5079 8.00004 10.5079Z" fill="black"/>
</svg>
