<svg width="33" height="33" viewBox="0 0 33 33" fill="none" xmlns="http://www.w3.org/2000/svg">
<path d="M16.5 0C9.77628 0 4.30603 5.47014 4.30603 12.194C4.30603 18.7037 15.4226 32.1476 15.8958 32.7166C16.0451 32.8961 16.2665 33 16.5 33C16.7334 33 16.9549 32.8962 17.1042 32.7166C17.5775 32.1474 28.694 18.7037 28.694 12.194C28.694 5.47014 23.2238 0 16.5 0ZM16.5 30.9674C15.5143 29.7366 13.4663 27.1142 11.4397 24.1163C7.80089 18.7337 5.87746 14.611 5.87746 12.194C5.87746 6.33663 10.6428 1.57143 16.5 1.57143C22.3572 1.57143 27.1225 6.33663 27.1225 12.194C27.1225 14.6109 25.1992 18.7336 21.5603 24.1163C19.5336 27.1142 17.4857 29.7366 16.5 30.9674Z" fill="white"/>
<path d="M20.4974 22.4145C20.1379 22.1715 19.6494 22.2663 19.4065 22.6258C18.3462 24.1953 17.1584 25.8403 15.8762 27.515C15.6124 27.8596 15.6777 28.3527 16.0223 28.6165C16.1648 28.7257 16.3327 28.7785 16.4994 28.7785C16.7355 28.7785 16.9691 28.6723 17.1238 28.4704C18.4249 26.7711 19.631 25.1007 20.7086 23.5055C20.9516 23.1459 20.8571 22.6574 20.4974 22.4145Z" fill="white"/>
<path d="M16.5 6.02393C12.9474 6.02393 10.0572 8.9142 10.0572 12.4668C10.0572 16.0194 12.9474 18.9096 16.5 18.9096C20.0526 18.9096 22.9429 16.0194 22.9429 12.4668C22.9429 8.9142 20.0526 6.02393 16.5 6.02393ZM16.5 17.3382C13.8139 17.3382 11.6286 15.1529 11.6286 12.4668C11.6286 9.78069 13.8139 7.59535 16.5 7.59535C19.1862 7.59535 21.3714 9.78069 21.3714 12.4668C21.3714 15.1529 19.1862 17.3382 16.5 17.3382Z" fill="white"/>
</svg>
