<svg width="42" height="41" viewBox="0 0 42 41" fill="none" xmlns="http://www.w3.org/2000/svg">
<path d="M20.6587 0C12.2403 0 5.39133 6.79624 5.39133 15.1501C5.39133 23.2379 19.3098 39.9409 19.9022 40.6479C20.0892 40.8709 20.3663 41 20.6587 41C20.9509 41 21.2282 40.871 21.4151 40.6479C22.0077 39.9408 35.926 23.2379 35.926 15.1501C35.926 6.79624 29.0772 0 20.6587 0ZM20.6587 38.4747C19.4245 36.9454 16.8604 33.6873 14.323 29.9627C9.76703 23.2752 7.35882 18.1531 7.35882 15.1501C7.35882 7.87278 13.3252 1.95238 20.6587 1.95238C27.9922 1.95238 33.9585 7.87278 33.9585 15.1501C33.9585 18.153 31.5504 23.2751 26.9944 29.9627C24.4569 33.6873 21.8928 36.9454 20.6587 38.4747Z" fill="white"/>
<path d="M25.6636 27.8483C25.2134 27.5464 24.6018 27.6641 24.2977 28.1108C22.9702 30.0608 21.483 32.1046 19.8776 34.1853C19.5473 34.6134 19.6291 35.2261 20.0605 35.5538C20.2389 35.6894 20.4492 35.755 20.6579 35.755C20.9535 35.755 21.246 35.6232 21.4396 35.3722C23.0687 33.261 24.5788 31.1857 25.928 29.2037C26.2322 28.757 26.1139 28.1501 25.6636 27.8483Z" fill="white"/>
<path d="M20.6587 7.48413C16.2107 7.48413 12.5919 11.0751 12.5919 15.4889C12.5919 19.9027 16.2107 23.4937 20.6587 23.4937C25.1066 23.4937 28.7254 19.9027 28.7254 15.4889C28.7254 11.0751 25.1066 7.48413 20.6587 7.48413ZM20.6587 21.5413C17.2956 21.5413 14.5594 18.8262 14.5594 15.4889C14.5594 12.1516 17.2956 9.43651 20.6587 9.43651C24.0219 9.43651 26.7579 12.1516 26.7579 15.4889C26.7579 18.8262 24.0219 21.5413 20.6587 21.5413Z" fill="white"/>
</svg>
