<svg width="800" height="800" viewBox="0 0 800 800" fill="none" xmlns="http://www.w3.org/2000/svg">
<path d="M305.719 139.052C330.724 114.048 364.637 99.9999 400 99.9999C435.363 99.9999 469.277 114.048 494.28 139.052C512.903 157.675 525.45 181.24 530.64 206.667C534.323 224.705 551.93 236.342 569.967 232.66C588.003 228.978 599.643 211.37 595.96 193.333C588.173 155.197 569.357 119.848 541.42 91.9119C503.913 54.4046 453.043 33.3333 400 33.3333C346.957 33.3333 296.086 54.4046 258.579 91.9119C221.071 129.419 200 180.29 200 233.333V333.333H166.667C111.438 333.333 66.6667 378.103 66.6667 433.333V666.667C66.6667 721.897 111.438 766.667 166.667 766.667H633.333C688.563 766.667 733.333 721.897 733.333 666.667V433.333C733.333 378.103 688.563 333.333 633.333 333.333H266.667V233.333C266.667 197.971 280.714 164.057 305.719 139.052ZM166.667 400C148.257 400 133.333 414.923 133.333 433.333V666.667C133.333 685.077 148.257 700 166.667 700H633.333C651.743 700 666.667 685.077 666.667 666.667V433.333C666.667 414.923 651.743 400 633.333 400H166.667Z" fill="black"/>
<path d="M305.719 139.052C330.724 114.048 364.637 99.9999 400 99.9999C435.363 99.9999 469.277 114.048 494.28 139.052C512.903 157.675 525.45 181.24 530.64 206.667C534.323 224.705 551.93 236.342 569.967 232.66C588.003 228.978 599.643 211.37 595.96 193.333C588.173 155.197 569.357 119.848 541.42 91.9119C503.913 54.4046 453.043 33.3333 400 33.3333C346.957 33.3333 296.086 54.4046 258.579 91.9119C221.071 129.419 200 180.29 200 233.333V333.333H166.667C111.438 333.333 66.6667 378.103 66.6667 433.333V666.667C66.6667 721.897 111.438 766.667 166.667 766.667H633.333C688.563 766.667 733.333 721.897 733.333 666.667V433.333C733.333 378.103 688.563 333.333 633.333 333.333H266.667V233.333C266.667 197.971 280.714 164.057 305.719 139.052ZM166.667 400C148.257 400 133.333 414.923 133.333 433.333V666.667C133.333 685.077 148.257 700 166.667 700H633.333C651.743 700 666.667 685.077 666.667 666.667V433.333C666.667 414.923 651.743 400 633.333 400H166.667Z" stroke="black"/>
</svg>
