<svg width="36" height="35" viewBox="0 0 36 35" fill="none" xmlns="http://www.w3.org/2000/svg">
<g clip-path="url(#clip0_40_48)">
<path d="M34.8929 26.5433C33.58 24.0803 29.0206 21.4096 28.8198 21.2928C28.234 20.9619 27.6226 20.7867 27.0505 20.7867C26.1998 20.7867 25.5034 21.1734 25.0817 21.8768C24.4147 22.6684 23.5876 23.5936 23.3868 23.737C21.8333 24.783 20.6171 24.6642 19.2714 23.3289L11.7611 15.8756C10.4239 14.5487 10.301 13.327 11.3478 11.7937C11.4943 11.5933 12.4267 10.7718 13.2244 10.1093C13.7332 9.80893 14.0823 9.36252 14.2353 8.81489C14.4387 8.08624 14.2889 7.22912 13.809 6.39405C13.6959 6.202 11.0033 1.67695 8.52249 0.374718C8.05955 0.131401 7.53776 0.00292969 7.01467 0.00292969C6.15287 0.00292969 5.34208 0.336436 4.73267 0.940511L3.07316 2.58663C0.448536 5.19045 -0.501532 8.14204 0.247799 11.359C0.872896 14.04 2.69457 16.893 5.66313 19.8381L15.2782 29.3794C19.0354 33.1077 22.6172 34.9984 25.9245 34.9984C28.3575 34.9984 30.6245 33.9726 32.6633 31.9501L34.3221 30.304C35.3304 29.3041 35.5592 27.7923 34.8929 26.5433Z" fill="white"/>
<path d="M19.3283 16.1733C19.4081 16.2064 19.4931 16.2232 19.5781 16.2232H27.4245C27.7854 16.2232 28.0784 15.9332 28.0784 15.5744C28.0784 15.2156 27.7854 14.9255 27.4245 14.9255H21.1565L31.1561 5.00276C31.4118 4.74906 31.4118 4.33899 31.1561 4.08529C30.9005 3.83159 30.4872 3.83159 30.2315 4.08529L20.232 14.0081V7.78825C20.232 7.42944 19.939 7.13941 19.5781 7.13941C19.2172 7.13941 18.9242 7.42944 18.9242 7.78825V15.5744C18.9242 15.6587 18.9419 15.7431 18.9746 15.8223C19.0413 15.9812 19.1688 16.1077 19.3283 16.1733Z" fill="white"/>
</g>
<defs>
<clipPath id="clip0_40_48">
<rect width="35.2709" height="35" fill="white"/>
</clipPath>
</defs>
</svg>
