<svg width="42" height="41" viewBox="0 0 42 41" fill="none" xmlns="http://www.w3.org/2000/svg">
<path d="M37.4438 8.96875H30.988V6.72656C30.988 6.55039 30.8428 6.40625 30.6652 6.40625H28.4057C28.2281 6.40625 28.0829 6.55039 28.0829 6.72656V8.96875H22.1112V6.72656C22.1112 6.55039 21.966 6.40625 21.7884 6.40625H19.5289C19.3514 6.40625 19.2061 6.55039 19.2061 6.72656V8.96875H13.2345V6.72656C13.2345 6.55039 13.0892 6.40625 12.9117 6.40625H10.6521C10.4746 6.40625 10.3293 6.55039 10.3293 6.72656V8.96875H3.8735C3.15933 8.96875 2.58234 9.54131 2.58234 10.25V33.3125C2.58234 34.0212 3.15933 34.5938 3.8735 34.5938H37.4438C38.158 34.5938 38.735 34.0212 38.735 33.3125V10.25C38.735 9.54131 38.158 8.96875 37.4438 8.96875ZM35.8299 31.7109H5.48746V11.8516H10.3293V14.0938C10.3293 14.2699 10.4746 14.4141 10.6521 14.4141H12.9117C13.0892 14.4141 13.2345 14.2699 13.2345 14.0938V11.8516H19.2061V14.0938C19.2061 14.2699 19.3514 14.4141 19.5289 14.4141H21.7884C21.966 14.4141 22.1112 14.2699 22.1112 14.0938V11.8516H28.0829V14.0938C28.0829 14.2699 28.2281 14.4141 28.4057 14.4141H30.6652C30.8428 14.4141 30.988 14.2699 30.988 14.0938V11.8516H35.8299V31.7109ZM16.7852 19.8594H9.36096C9.18343 19.8594 9.03817 20.0035 9.03817 20.1797V22.1016C9.03817 22.2777 9.18343 22.4219 9.36096 22.4219H16.7852C16.9627 22.4219 17.108 22.2777 17.108 22.1016V20.1797C17.108 20.0035 16.9627 19.8594 16.7852 19.8594ZM16.7852 25.3047H9.36096C9.18343 25.3047 9.03817 25.4488 9.03817 25.625V27.5469C9.03817 27.723 9.18343 27.8672 9.36096 27.8672H16.7852C16.9627 27.8672 17.108 27.723 17.108 27.5469V25.625C17.108 25.4488 16.9627 25.3047 16.7852 25.3047ZM29.2207 18.2018L25.0406 23.9554L22.9101 21.0285C22.7891 20.8604 22.5954 20.7643 22.3896 20.7643H20.1745C19.9122 20.7643 19.7589 21.0605 19.9122 21.2728L24.516 27.6069C24.5755 27.6888 24.6537 27.7554 24.7442 27.8014C24.8347 27.8474 24.9349 27.8714 25.0365 27.8714C25.1382 27.8714 25.2384 27.8474 25.3289 27.8014C25.4194 27.7554 25.4976 27.6888 25.557 27.6069L32.2146 18.45C32.3679 18.2378 32.2146 17.9415 31.9523 17.9415H29.7372C29.5354 17.9375 29.3418 18.0376 29.2207 18.2018Z" fill="white"/>
</svg>
