<svg width="25" height="19" viewBox="0 0 25 19" fill="none" xmlns="http://www.w3.org/2000/svg">
<path d="M23.4688 1.90625H19.25V0.429688C19.25 0.313672 19.1551 0.21875 19.0391 0.21875H17.5625C17.4465 0.21875 17.3516 0.313672 17.3516 0.429688V1.90625H13.4492V0.429688C13.4492 0.313672 13.3543 0.21875 13.2383 0.21875H11.7617C11.6457 0.21875 11.5508 0.313672 11.5508 0.429688V1.90625H7.64844V0.429688C7.64844 0.313672 7.55352 0.21875 7.4375 0.21875H5.96094C5.84492 0.21875 5.75 0.313672 5.75 0.429688V1.90625H1.53125C1.06455 1.90625 0.6875 2.2833 0.6875 2.75V17.9375C0.6875 18.4042 1.06455 18.7812 1.53125 18.7812H23.4688C23.9355 18.7812 24.3125 18.4042 24.3125 17.9375V2.75C24.3125 2.2833 23.9355 1.90625 23.4688 1.90625ZM22.4141 16.8828H2.58594V3.80469H5.75V5.28125C5.75 5.39727 5.84492 5.49219 5.96094 5.49219H7.4375C7.55352 5.49219 7.64844 5.39727 7.64844 5.28125V3.80469H11.5508V5.28125C11.5508 5.39727 11.6457 5.49219 11.7617 5.49219H13.2383C13.3543 5.49219 13.4492 5.39727 13.4492 5.28125V3.80469H17.3516V5.28125C17.3516 5.39727 17.4465 5.49219 17.5625 5.49219H19.0391C19.1551 5.49219 19.25 5.39727 19.25 5.28125V3.80469H22.4141V16.8828ZM9.96875 9.07812H5.11719C5.00117 9.07812 4.90625 9.17305 4.90625 9.28906V10.5547C4.90625 10.6707 5.00117 10.7656 5.11719 10.7656H9.96875C10.0848 10.7656 10.1797 10.6707 10.1797 10.5547V9.28906C10.1797 9.17305 10.0848 9.07812 9.96875 9.07812ZM9.96875 12.6641H5.11719C5.00117 12.6641 4.90625 12.759 4.90625 12.875V14.1406C4.90625 14.2566 5.00117 14.3516 5.11719 14.3516H9.96875C10.0848 14.3516 10.1797 14.2566 10.1797 14.1406V12.875C10.1797 12.759 10.0848 12.6641 9.96875 12.6641ZM18.0951 7.98652L15.3635 11.7755L13.9713 9.84805C13.8922 9.73731 13.7656 9.67402 13.6312 9.67402H12.1836C12.0122 9.67402 11.912 9.86914 12.0122 10.0089L15.0207 14.1802C15.0595 14.2341 15.1106 14.278 15.1698 14.3083C15.2289 14.3385 15.2944 14.3543 15.3608 14.3543C15.4273 14.3543 15.4928 14.3385 15.5519 14.3083C15.611 14.278 15.6621 14.2341 15.701 14.1802L20.0516 8.15C20.1518 8.01025 20.0516 7.81514 19.8802 7.81514H18.4326C18.3008 7.8125 18.1742 7.87842 18.0951 7.98652Z" fill="black"/>
</svg>
